<?xml version="1.0"?>
<svg xmlns="http://www.w3.org/2000/svg" xmlns:xlink="http://www.w3.org/1999/xlink" xmlns:svgjs="http://svgjs.com/svgjs" version="1.1" width="512" height="512" x="0" y="0" viewBox="0 0 512 512" style="enable-background:new 0 0 512 512" xml:space="preserve" class=""><g><g xmlns="http://www.w3.org/2000/svg"><path d="m405.425 349.664c-11.516-10.616-26.322-19.883-43.528-27.348l19.52-19.521c33.503-33.501 51.954-78.045 51.954-125.424.001-97.803-79.568-177.371-177.371-177.371s-177.372 79.568-177.372 177.372c0 47.381 18.453 91.926 51.958 125.427l19.518 19.518c-17.206 7.465-32.013 16.731-43.529 27.348-18.283 16.854-27.947 36.681-27.947 57.335 0 58.878 77.911 105 177.372 105s177.372-46.122 177.372-105c0-20.654-9.664-40.48-27.947-57.336zm-296.797-172.292c0-81.261 66.111-147.372 147.372-147.372s147.372 66.111 147.372 147.372c0 39.366-15.33 76.375-43.167 104.211l-104.205 104.204-104.202-104.203c-27.838-27.834-43.17-64.845-43.17-104.212zm254.914 280.148c-28.48 15.786-66.672 24.48-107.542 24.48s-79.062-8.694-107.542-24.48c-25.685-14.236-39.83-32.178-39.83-50.52 0-23.796 25.063-47.433 64.583-61.576l82.789 82.789 82.789-82.789c39.52 14.143 64.583 37.78 64.583 61.575 0 18.343-14.145 36.285-39.83 50.521z" fill="#afafaf" data-original="#000000" style="" class=""/><path d="m256 294.744c64.719 0 117.372-52.653 117.372-117.372s-52.653-117.372-117.372-117.372-117.372 52.653-117.372 117.372 52.653 117.372 117.372 117.372zm-27.372-34.397v-60.217l27.372-19.38 27.372 19.38v60.217c-8.614 2.849-17.815 4.396-27.372 4.396s-18.758-1.547-27.372-4.396zm27.372-170.347c48.177 0 87.372 39.195 87.372 87.372 0 26.239-11.628 49.812-30 65.841v-58.599l-57.372-40.621-57.372 40.62v58.599c-18.372-16.029-30-39.602-30-65.841 0-48.176 39.195-87.371 87.372-87.371z" fill="#afafaf" data-original="#000000" style="" class=""/></g></g></svg>
