<svg id="Capa_1" enable-background="new 0 0 512 512" height="512" viewBox="0 0 512 512" width="512" xmlns="http://www.w3.org/2000/svg"><g><g><path d="m76 257-30-15v-60h30z" fill="#665151"/></g><g><path d="m226 332h-180v-90h180z" fill="#ff7f40"/></g><path d="m136 242h90v90h-90z" fill="#f25a3c"/><g id="_Snack_Booth_1_"><g><path d="m346 182h30v135h-30z" fill="#4d3535"/></g><g><path d="m76 452h30v60h-30z" fill="#665151"/></g><g><path d="m496 332h-105l15-30h90z" fill="#4d3535"/></g></g><path d="m151 103.4v80.4l-60 30-75-37.5v-72.9l75.9-30z" fill="#ffb95a"/><path d="m271 103.4v80.4l-60 30-60-30v-80.4l60-30z" fill="#f25a3c"/><g><path d="m211 73.4v140.4l60-30v-80.4z" fill="#e63a3a"/></g><path d="m406 103.4v72.9l-75 37.5-60-30v-80.4l67.5-30z" fill="#ff9833"/><g><path d="m346 467h-330v-165h390v129.272l-20.229-7.515c-18.677-6.972-39.771 8.204-39.771 28.243z" fill="#ffb95a"/></g><g><path d="m167.8 0 21.6 52.7-38.4 50.7h-135l50.7-103.4z" fill="#ffdc73"/></g><path d="m271 103.4h-120l16.8-103.4h86.7l38.25 52.7z" fill="#ff7f40"/><g><path d="m292.75 52.7-38.25-52.7h-43.5v103.4h60z" fill="#f25a3c"/></g><path d="m406 103.4h-135l-16.5-103.4h100.8z" fill="#ffb95a"/><path d="m211 467h135v-15c0-20.039 21.094-35.215 39.771-28.242l20.229 7.514v-129.272h-195z" fill="#ff9833"/><circle cx="376" cy="452" fill="#4d3535" r="60"/><circle cx="376" cy="452" fill="#ffeacc" r="15"/></g></svg>