<?xml version="1.0"?>
<svg xmlns="http://www.w3.org/2000/svg" xmlns:xlink="http://www.w3.org/1999/xlink" xmlns:svgjs="http://svgjs.com/svgjs" version="1.1" width="512" height="512" x="0" y="0" viewBox="0 0 605.113 605.113" style="enable-background:new 0 0 512 512" xml:space="preserve" class=""><g>
<g xmlns="http://www.w3.org/2000/svg">
	<g>
		<path d="M529.473,113.459h-56.729l-18.91-37.82C442.695,53.628,436.91,37.82,416.016,37.82H189.097    c-20.895,0-27.797,18.04-37.82,37.819l-18.91,37.82H75.639C33.867,113.459,0,147.326,0,189.098v302.556    c0,41.771,33.867,75.639,75.639,75.639h453.835c41.771,0,75.639-33.867,75.639-75.639V189.098    C605.111,147.327,571.244,113.459,529.473,113.459z M302.556,491.654c-83.543,0-151.278-67.734-151.278-151.277    s67.735-151.278,151.278-151.278c83.543,0,151.278,67.735,151.278,151.278S386.1,491.654,302.556,491.654z" fill="#ffee58" data-original="#000000" style="" class=""/>
		<path d="M302.556,226.918c-62.667,0-113.459,50.792-113.459,113.459c0,62.668,50.792,113.459,113.459,113.459    c62.667,0,113.459-50.791,113.459-113.459S365.223,226.918,302.556,226.918z" fill="#ffee58" data-original="#000000" style="" class=""/>
	</g>
</g>
<g xmlns="http://www.w3.org/2000/svg">
</g>
<g xmlns="http://www.w3.org/2000/svg">
</g>
<g xmlns="http://www.w3.org/2000/svg">
</g>
<g xmlns="http://www.w3.org/2000/svg">
</g>
<g xmlns="http://www.w3.org/2000/svg">
</g>
<g xmlns="http://www.w3.org/2000/svg">
</g>
<g xmlns="http://www.w3.org/2000/svg">
</g>
<g xmlns="http://www.w3.org/2000/svg">
</g>
<g xmlns="http://www.w3.org/2000/svg">
</g>
<g xmlns="http://www.w3.org/2000/svg">
</g>
<g xmlns="http://www.w3.org/2000/svg">
</g>
<g xmlns="http://www.w3.org/2000/svg">
</g>
<g xmlns="http://www.w3.org/2000/svg">
</g>
<g xmlns="http://www.w3.org/2000/svg">
</g>
<g xmlns="http://www.w3.org/2000/svg">
</g>
</g></svg>
